<svg width="188" height="32" viewBox="0 0 188 32" fill="none" xmlns="http://www.w3.org/2000/svg">
<path d="M54.3419 3.84589H60.0539C60.9019 3.84589 61.6939 3.93389 62.4299 4.10989C63.1819 4.26989 63.8299 4.54989 64.3739 4.94989C64.9339 5.33389 65.3739 5.85389 65.6939 6.50989C66.0139 7.14989 66.1739 7.94189 66.1739 8.88589C66.1739 9.79789 66.0059 10.5899 65.6699 11.2619C65.3499 11.9339 64.9099 12.4859 64.3499 12.9179C63.7899 13.3499 63.1419 13.6699 62.4059 13.8779C61.6699 14.0859 60.8859 14.1899 60.0539 14.1899H57.8699V19.4939H54.3419V3.84589ZM59.8379 11.3819C61.7579 11.3819 62.7179 10.5499 62.7179 8.88589C62.7179 8.06989 62.4699 7.49389 61.9739 7.15789C61.4939 6.82189 60.7819 6.65389 59.8379 6.65389H57.8699V11.3819H59.8379Z" fill="#E7244E"/>
<path d="M68.6086 7.58989H71.4886L71.7286 9.67789H71.8246C72.2566 8.86189 72.7766 8.26189 73.3846 7.87789C73.9926 7.49389 74.6006 7.30189 75.2086 7.30189C75.5446 7.30189 75.8166 7.32589 76.0246 7.37389C76.2486 7.40589 76.4486 7.46189 76.6246 7.54189L76.0486 10.5899C75.8246 10.5259 75.6166 10.4779 75.4246 10.4459C75.2326 10.4139 75.0086 10.3979 74.7526 10.3979C74.3046 10.3979 73.8326 10.5579 73.3366 10.8779C72.8566 11.1979 72.4566 11.7659 72.1366 12.5819V19.4939H68.6086V7.58989Z" fill="#E7244E"/>
<path d="M77.2407 13.5419C77.2407 12.5499 77.4007 11.6699 77.7207 10.9019C78.0407 10.1179 78.4647 9.46189 78.9927 8.93389C79.5367 8.40589 80.1607 8.00589 80.8647 7.73389C81.5687 7.44589 82.2967 7.30189 83.0487 7.30189C83.8007 7.30189 84.5207 7.44589 85.2087 7.73389C85.9127 8.00589 86.5287 8.40589 87.0567 8.93389C87.6007 9.46189 88.0327 10.1179 88.3527 10.9019C88.6727 11.6699 88.8327 12.5499 88.8327 13.5419C88.8327 14.5339 88.6727 15.4219 88.3527 16.2059C88.0327 16.9739 87.6007 17.6219 87.0567 18.1499C86.5287 18.6779 85.9127 19.0859 85.2087 19.3739C84.5207 19.6459 83.8007 19.7819 83.0487 19.7819C82.2967 19.7819 81.5687 19.6459 80.8647 19.3739C80.1607 19.0859 79.5367 18.6779 78.9927 18.1499C78.4647 17.6219 78.0407 16.9739 77.7207 16.2059C77.4007 15.4219 77.2407 14.5339 77.2407 13.5419ZM80.8647 13.5419C80.8647 14.5819 81.0407 15.4059 81.3927 16.0139C81.7607 16.6219 82.3127 16.9259 83.0487 16.9259C83.7687 16.9259 84.3127 16.6219 84.6807 16.0139C85.0487 15.4059 85.2327 14.5819 85.2327 13.5419C85.2327 12.5019 85.0487 11.6779 84.6807 11.0699C84.3127 10.4619 83.7687 10.1579 83.0487 10.1579C82.3127 10.1579 81.7607 10.4619 81.3927 11.0699C81.0407 11.6779 80.8647 12.5019 80.8647 13.5419Z" fill="#E7244E"/>
<path d="M90.6252 13.5419C90.6252 12.5659 90.7612 11.6939 91.0332 10.9259C91.3212 10.1579 91.6892 9.50989 92.1372 8.98189C92.6012 8.43789 93.1292 8.02189 93.7212 7.73389C94.3292 7.44589 94.9452 7.30189 95.5692 7.30189C96.2412 7.30189 96.7932 7.41389 97.2252 7.63789C97.6572 7.86189 98.0812 8.16589 98.4972 8.54989L98.3532 6.72589V2.66989H101.881V19.4939H99.0012L98.7612 18.3179H98.6652C98.2492 18.7339 97.7612 19.0859 97.2012 19.3739C96.6412 19.6459 96.0732 19.7819 95.4972 19.7819C94.7612 19.7819 94.0892 19.6379 93.4812 19.3499C92.8892 19.0619 92.3772 18.6539 91.9452 18.1259C91.5292 17.5819 91.2012 16.9259 90.9612 16.1579C90.7372 15.3899 90.6252 14.5179 90.6252 13.5419ZM94.2492 13.4939C94.2492 14.6779 94.4332 15.5419 94.8012 16.0859C95.1852 16.6299 95.7212 16.9019 96.4092 16.9019C96.7932 16.9019 97.1372 16.8219 97.4412 16.6619C97.7612 16.5019 98.0652 16.2219 98.3532 15.8219V10.9499C98.0332 10.6619 97.7052 10.4619 97.3692 10.3499C97.0332 10.2379 96.7052 10.1819 96.3852 10.1819C95.8252 10.1819 95.3292 10.4539 94.8972 10.9979C94.4652 11.5259 94.2492 12.3579 94.2492 13.4939Z" fill="#E7244E"/>
<path d="M104.887 7.58989H108.415V14.5259C108.415 15.3899 108.535 15.9819 108.775 16.3019C109.015 16.6219 109.391 16.7819 109.903 16.7819C110.351 16.7819 110.727 16.6779 111.031 16.4699C111.335 16.2619 111.663 15.9259 112.015 15.4619V7.58989H115.543V19.4939H112.663L112.399 17.8379H112.327C111.815 18.4459 111.263 18.9259 110.671 19.2779C110.095 19.6139 109.399 19.7819 108.583 19.7819C107.287 19.7819 106.343 19.3579 105.751 18.5099C105.175 17.6619 104.887 16.4859 104.887 14.9819V7.58989Z" fill="#E7244E"/>
<path d="M117.952 13.5419C117.952 12.5499 118.12 11.6699 118.456 10.9019C118.792 10.1179 119.24 9.46189 119.8 8.93389C120.376 8.40589 121.04 8.00589 121.792 7.73389C122.544 7.44589 123.328 7.30189 124.144 7.30189C124.88 7.30189 125.544 7.42989 126.136 7.68589C126.728 7.92589 127.224 8.25389 127.624 8.66989L126.016 10.8539C125.456 10.3899 124.904 10.1579 124.36 10.1579C123.496 10.1579 122.816 10.4619 122.32 11.0699C121.824 11.6779 121.576 12.5019 121.576 13.5419C121.576 14.5819 121.824 15.4059 122.32 16.0139C122.832 16.6219 123.472 16.9259 124.24 16.9259C124.672 16.9259 125.064 16.8379 125.416 16.6619C125.768 16.4859 126.088 16.2859 126.376 16.0619L127.792 18.2939C127.216 18.8059 126.576 19.1819 125.872 19.4219C125.168 19.6619 124.488 19.7819 123.832 19.7819C123 19.7819 122.224 19.6459 121.504 19.3739C120.8 19.0859 120.184 18.6779 119.656 18.1499C119.128 17.6219 118.712 16.9739 118.408 16.2059C118.104 15.4219 117.952 14.5339 117.952 13.5419Z" fill="#E7244E"/>
<path d="M130.331 10.3499H128.699V7.73389L130.523 7.58989L130.931 4.42189H133.859V7.58989H136.715V10.3499H133.859V15.1259C133.859 15.7979 133.995 16.2859 134.267 16.5899C134.555 16.8779 134.931 17.0219 135.395 17.0219C135.587 17.0219 135.779 16.9979 135.971 16.9499C136.179 16.9019 136.363 16.8459 136.523 16.7819L137.075 19.3499C136.755 19.4459 136.379 19.5419 135.947 19.6379C135.515 19.7339 135.011 19.7819 134.435 19.7819C133.699 19.7819 133.067 19.6699 132.539 19.4459C132.027 19.2219 131.603 18.9099 131.267 18.5099C130.947 18.1099 130.707 17.6299 130.547 17.0699C130.403 16.4939 130.331 15.8619 130.331 15.1739V10.3499Z" fill="#E7244E"/>
<path d="M139 4H142.528V16.672H148.72V19.648H139V4Z" fill="#FDC62D"/>
<path d="M150.11 13.696C150.11 12.704 150.27 11.824 150.59 11.056C150.91 10.272 151.334 9.616 151.862 9.088C152.406 8.56 153.03 8.16 153.734 7.888C154.438 7.6 155.166 7.456 155.918 7.456C156.67 7.456 157.39 7.6 158.078 7.888C158.782 8.16 159.398 8.56 159.926 9.088C160.47 9.616 160.902 10.272 161.222 11.056C161.542 11.824 161.702 12.704 161.702 13.696C161.702 14.688 161.542 15.576 161.222 16.36C160.902 17.128 160.47 17.776 159.926 18.304C159.398 18.832 158.782 19.24 158.078 19.528C157.39 19.8 156.67 19.936 155.918 19.936C155.166 19.936 154.438 19.8 153.734 19.528C153.03 19.24 152.406 18.832 151.862 18.304C151.334 17.776 150.91 17.128 150.59 16.36C150.27 15.576 150.11 14.688 150.11 13.696ZM153.734 13.696C153.734 14.736 153.91 15.56 154.262 16.168C154.63 16.776 155.182 17.08 155.918 17.08C156.638 17.08 157.182 16.776 157.55 16.168C157.918 15.56 158.102 14.736 158.102 13.696C158.102 12.656 157.918 11.832 157.55 11.224C157.182 10.616 156.638 10.312 155.918 10.312C155.182 10.312 154.63 10.616 154.262 11.224C153.91 11.832 153.734 12.656 153.734 13.696Z" fill="#FDC62D"/>
<path d="M166.278 21.136C166.278 21.584 166.518 21.92 166.998 22.144C167.478 22.384 168.118 22.504 168.918 22.504C169.718 22.504 170.374 22.36 170.886 22.072C171.398 21.8 171.654 21.456 171.654 21.04C171.654 20.672 171.494 20.424 171.174 20.296C170.87 20.168 170.422 20.104 169.83 20.104H168.606C168.19 20.104 167.854 20.088 167.598 20.056C167.342 20.04 167.118 20.008 166.926 19.96C166.494 20.344 166.278 20.736 166.278 21.136ZM163.374 21.688C163.374 20.728 163.942 19.928 165.078 19.288V19.192C164.758 18.984 164.494 18.72 164.286 18.4C164.078 18.08 163.974 17.672 163.974 17.176C163.974 16.744 164.102 16.336 164.358 15.952C164.614 15.552 164.934 15.216 165.318 14.944V14.848C164.902 14.56 164.526 14.152 164.19 13.624C163.87 13.08 163.71 12.456 163.71 11.752C163.71 11.032 163.846 10.408 164.118 9.88C164.39 9.336 164.75 8.888 165.198 8.536C165.662 8.168 166.19 7.896 166.782 7.72C167.374 7.544 167.99 7.456 168.63 7.456C169.334 7.456 169.95 7.552 170.478 7.744H174.822V10.312H172.926C173.038 10.488 173.126 10.712 173.19 10.984C173.27 11.256 173.31 11.552 173.31 11.872C173.31 12.56 173.19 13.16 172.95 13.672C172.71 14.168 172.374 14.584 171.942 14.92C171.526 15.24 171.03 15.48 170.454 15.64C169.894 15.8 169.286 15.88 168.63 15.88C168.166 15.88 167.686 15.8 167.19 15.64C167.03 15.768 166.918 15.896 166.854 16.024C166.79 16.152 166.758 16.32 166.758 16.528C166.758 16.832 166.886 17.056 167.142 17.2C167.414 17.344 167.886 17.416 168.558 17.416H170.478C171.95 17.416 173.07 17.656 173.838 18.136C174.622 18.6 175.014 19.368 175.014 20.44C175.014 21.064 174.854 21.632 174.534 22.144C174.23 22.672 173.79 23.12 173.214 23.488C172.638 23.872 171.942 24.168 171.126 24.376C170.31 24.6 169.39 24.712 168.366 24.712C167.662 24.712 167.006 24.648 166.398 24.52C165.806 24.408 165.278 24.232 164.814 23.992C164.366 23.752 164.014 23.44 163.758 23.056C163.502 22.672 163.374 22.216 163.374 21.688ZM168.63 13.744C169.094 13.744 169.478 13.584 169.782 13.264C170.102 12.928 170.262 12.424 170.262 11.752C170.262 11.128 170.102 10.656 169.782 10.336C169.478 10 169.094 9.832 168.63 9.832C168.166 9.832 167.774 9.992 167.454 10.312C167.15 10.632 166.998 11.112 166.998 11.752C166.998 12.424 167.15 12.928 167.454 13.264C167.774 13.584 168.166 13.744 168.63 13.744Z" fill="#FDC62D"/>
<path d="M175.821 13.696C175.821 12.704 175.981 11.824 176.301 11.056C176.621 10.272 177.045 9.616 177.573 9.088C178.117 8.56 178.741 8.16 179.445 7.888C180.149 7.6 180.877 7.456 181.629 7.456C182.381 7.456 183.101 7.6 183.789 7.888C184.493 8.16 185.109 8.56 185.637 9.088C186.181 9.616 186.613 10.272 186.933 11.056C187.253 11.824 187.413 12.704 187.413 13.696C187.413 14.688 187.253 15.576 186.933 16.36C186.613 17.128 186.181 17.776 185.637 18.304C185.109 18.832 184.493 19.24 183.789 19.528C183.101 19.8 182.381 19.936 181.629 19.936C180.877 19.936 180.149 19.8 179.445 19.528C178.741 19.24 178.117 18.832 177.573 18.304C177.045 17.776 176.621 17.128 176.301 16.36C175.981 15.576 175.821 14.688 175.821 13.696ZM179.445 13.696C179.445 14.736 179.621 15.56 179.973 16.168C180.341 16.776 180.893 17.08 181.629 17.08C182.349 17.08 182.893 16.776 183.261 16.168C183.629 15.56 183.813 14.736 183.813 13.696C183.813 12.656 183.629 11.832 183.261 11.224C182.893 10.616 182.349 10.312 181.629 10.312C180.893 10.312 180.341 10.616 179.973 11.224C179.621 11.832 179.445 12.656 179.445 13.696Z" fill="#FDC62D"/>
<path fill-rule="evenodd" clip-rule="evenodd" d="M21.9044 24.9138C22.4631 24.476 22.996 24.004 23.5 23.5C25.1415 21.8585 26.4437 19.9097 27.332 17.7649C27.4395 17.5056 27.5406 17.244 27.6353 16.9804C27.8867 16.9119 28.1341 16.8274 28.3759 16.7272C29.1272 16.416 29.8098 15.9599 30.3849 15.3848C30.9599 14.8098 31.416 14.1272 31.7272 13.3759C32.0384 12.6245 32.1986 11.8193 32.1986 11.0061C32.1986 10.1929 32.0384 9.38762 31.7272 8.63631C31.416 7.88501 30.9599 7.20235 30.3849 6.62732L36.2592 0.753036C37.6056 2.09949 38.6737 3.69795 39.4024 5.45717C40.1311 7.21639 40.5061 9.10192 40.5061 11.0061C40.5061 12.9103 40.1311 14.7958 39.4024 16.555C38.6737 18.3142 37.6056 19.9127 36.2592 21.2591C34.9127 22.6056 33.3142 23.6736 31.555 24.4023C29.7958 25.131 27.9103 25.5061 26.0061 25.5061C24.6149 25.5061 23.2337 25.3059 21.9044 24.9138Z" fill="url(#paint0_linear)"/>
<path d="M0.746958 21.253C2.09341 22.5995 3.69188 23.6675 5.4511 24.3962C7.21032 25.1249 9.09584 25.5 11 25.5C12.9042 25.5 14.7897 25.1249 16.5489 24.3962C18.3081 23.6675 19.9066 22.5995 21.2531 21.253C22.5995 19.9066 23.6676 18.3081 24.3963 16.5489C25.125 14.7897 25.5 12.9042 25.5 11C25.5 9.09582 25.125 7.2103 24.3963 5.45107C23.6676 3.69185 22.5995 2.09339 21.2531 0.746937L15.3788 6.62122C15.9538 7.19625 16.4099 7.87891 16.7211 8.63022C17.0323 9.38152 17.1925 10.1868 17.1925 11C17.1925 11.8132 17.0323 12.6184 16.7211 13.3698C16.4099 14.1211 15.9538 14.8037 15.3788 15.3787C14.8037 15.9538 14.1211 16.4099 13.3698 16.7211C12.6185 17.0323 11.8132 17.1925 11 17.1925C10.1868 17.1925 9.38155 17.0323 8.63024 16.7211C7.87893 16.4099 7.19627 15.9538 6.62124 15.3788L0.746958 21.253Z" fill="url(#paint1_radial)"/>
<defs>
<linearGradient id="paint0_linear" x1="38.3641" y1="2.85797" x2="20.0308" y2="22.0061" gradientUnits="userSpaceOnUse">
<stop stop-color="#FDBA2B"/>
<stop offset="1" stop-color="#FDD730"/>
</linearGradient>
<radialGradient id="paint1_radial" cx="0" cy="0" r="1" gradientUnits="userSpaceOnUse" gradientTransform="translate(11.0653 31.4408) rotate(-91.8365) scale(32.4019 132.045)">
<stop stop-color="#FA2946"/>
<stop offset="1" stop-color="#CC1C58"/>
</radialGradient>
</defs>
</svg>
